PathFileType	4	(X/Y/Z)	/Users/niels/Desktop/University/Third Semester/Perception and Action/Exam/Gymnastics Motion Tracking/Code for Gym Tracking/Analyzed Data/Webcam_Backflip/id2001_2_trajectory_Sports2D/id2001_2_trajectory_Sports2D_px_person00.trc
DataRate	CameraRate	NumFrames	NumMarkers	Units	OrigDataRate	OrigDataStartFrame	OrigNumFrames
29.887218045112782	29.887218045112782	8	22	m	29.887218045112782	99	266
Frame#	Time	Hip			RHip			RKnee			RAnkle			RBigToe			RSmallToe			RHeel			LHip			LKnee			LAnkle			LBigToe			LSmallToe			LHeel			Neck			Head			Nose			RShoulder			RElbow			RWrist			LShoulder			LElbow			LWrist		
		X1	Y1	Z1	X2	Y2	Z2	X3	Y3	Z3	X4	Y4	Z4	X5	Y5	Z5	X6	Y6	Z6	X7	Y7	Z7	X8	Y8	Z8	X9	Y9	Z9	X10	Y10	Z10	X11	Y11	Z11	X12	Y12	Z12	X13	Y13	Z13	X14	Y14	Z14	X15	Y15	Z15	X16	Y16	Z16	X17	Y17	Z17	X18	Y18	Z18	X19	Y19	Z19	X20	Y20	Z20	X21	Y21	Z21	X22	Y22	Z22
99	3.3124528301886795	0.9772137350789429	-0.7272708800085247	0.0	0.951894659758108	-0.7410492835446562	0.0	0.9750540799282664	-1.0634083220104475	0.0	0.6144375063563179	-1.0131591754590752	0.0	0.578062499697493	-1.0279619142936158	0.0	0.5727187499980084	-1.0405371093742233	0.0	0.572718749676712	-0.9774267576317733	0.0	1.0084846559062723	-0.7418860791881635	0.0	1.0174093739295593	-1.0600787025430058	0.0	1.0532451909500222	-1.095991617734995	0.0	0.6878120117187871	-1.0321572265625831	0.0	0.5439374999999866	-1.009991210937524	0.0	0.6144375061579492	-0.9972509716038377	0.0	1.0161383942749729	-0.23442360643968482	0.0	1.1208399208417505	-0.05307573714824909	0.0	1.1118121804385717	-0.1597762077459687	0.0	0.9607043269019199	-0.25039299342768473	0.0	0.7887634023131548	-0.3729305440250466	0.0	0.935781501848099	-0.585500550981184	0.0	1.0407645949828817	-0.29958312889415384	0.0	0.9890635828843001	-0.4392229194281203	0.0	1.0121932750270815	-0.6128442890741121	0.0
100	3.345911949685535	0.9754863509342178	-0.727160866602669	0.0	0.9502291274488929	-0.7424153135130307	0.0	0.9726391423382006	-1.0628899636244367	0.0	0.6144375033902209	-1.0131591766634842	0.0	0.578062499697004	-1.0279619141258325	0.0	0.5727187499971209	-1.0405371093738172	0.0	0.5727187496397361	-0.9774267575723754	0.0	1.006633867065037	-0.7432226124576269	0.0	1.0149981423716206	-1.0592653663287557	0.0	1.055267502068014	-1.0961680939039955	0.0	0.6878120117187815	-1.0321572265625623	0.0	0.5439375000006578	-1.0099912109376088	0.0	0.6144375053868595	-0.9972509723995281	0.0	1.0210557855538815	-0.23448018267763318	0.0	1.127583170925316	-0.05455532104542167	0.0	1.1171872630363766	-0.16129105056022788	0.0	0.9656538736028693	-0.2511289814481721	0.0	0.792113644867272	-0.37158900284722257	0.0	0.9353571379858299	-0.5851758295741768	0.0	1.0437001759270106	-0.2988249558702802	0.0	1.0027426421998247	-0.4415884334650609	0.0	1.0121329099364824	-0.6141880992397742	0.0
101	3.3793710691823904	0.97405497059526	-0.727067229569988	0.0	0.9490727132391774	-0.7438661573906707	0.0	0.9699544340946681	-1.062446406455292	0.0	0.614437493988973	-1.0131591815577297	0.0	0.5780624998938679	-1.0279619136779858	0.0	0.5727187499968527	-1.0405371093736067	0.0	0.5727187497856437	-0.9774267575854391	0.0	1.0050517248594315	-0.7445406329056973	0.0	1.0111441204715619	-1.058576522238418	0.0	1.057362347792427	-1.0963886269205119	0.0	0.6878120117187471	-1.032157226562471	0.0	0.5439375000018536	-1.0099912109377431	0.0	0.6144374999978831	-0.9972509770481244	0.0	1.0265323680579117	-0.2347517964279321	0.0	1.1349982576697117	-0.05636963942229354	0.0	1.1233108222318682	-0.16319160782800535	0.0	0.9712362121905745	-0.25160842633325864	0.0	0.7958079871319723	-0.36958285060990276	0.0	0.9349039315816615	-0.585419627778028	0.0	1.046981551902853	-0.29870552528334116	0.0	1.0165085331673134	-0.4458580254595914	0.0	1.0121141170354884	-0.6161218760523894	0.0
102	3.4128301886792456	0.9727204761421963	-0.7271158646931256	0.0	0.9482575530349047	-0.7452484538947174	0.0	0.9670600808575237	-1.0623600464384015	0.0	0.614437475143731	-1.0131591921914533	0.0	0.5780625004401369	-1.027961912844422	0.0	0.5727187499982601	-1.0405371093740072	0.0	0.5727187502792112	-0.9774267577654999	0.0	1.0036017482592836	-0.7459162493669237	0.0	1.006348400053662	-1.0583214442261142	0.0	1.0582636444505724	-1.0965717385397318	0.0	0.6878120117186655	-1.0321572265622692	0.0	0.5439375000035388	-1.0099912109379097	0.0	0.6144374869446265	-0.9972509879917945	0.0	1.032509774475688	-0.23529688450545824	0.0	1.1431706338963668	-0.05841256728907519	0.0	1.1302922247212552	-0.1654086063222962	0.0	0.9772108888841657	-0.2517664142949244	0.0	0.7998089387563072	-0.36695356022206305	0.0	0.9344605460094092	-0.5862977845104096	0.0	1.0508338548247742	-0.29961101229700127	0.0	1.0271716129457436	-0.45193753916514323	0.0	1.0122152622329277	-0.6190003362369996	0.0
103	3.4462893081761012	0.9712925150935701	-0.727431703179312	0.0	0.9474439408184594	-0.7464395813355561	0.0	0.9637635253271277	-1.0626869688747633	0.0	0.614437445738573	-1.013159209778336	0.0	0.5780625014757693	-1.0279619116213146	0.0	0.5727187500028069	-1.0405371093756266	0.0	0.5727187512923622	-0.9774267582324128	0.0	1.0022051477399878	-0.7474418229956986	0.0	1.0014029140147174	-1.058565254187239	0.0	1.0556844848202356	-1.0965445099485363	0.0	0.687812011718523	-1.032157226561931	0.0	0.543937500005308	-1.0099912109380456	0.0	0.6144374638569219	-0.9972510070319468	0.0	1.0389226735344876	-0.2361340797722745	0.0	1.1520966642954689	-0.06065291946513146	0.0	1.1380079844246727	-0.167823316090032	0.0	0.9833554156138758	-0.2516979172326853	0.0	0.8040694607593685	-0.3639550438329122	0.0	0.9340524585847859	-0.5877044774993677	0.0	1.0555031261641423	-0.30169529380068555	0.0	1.034167602005282	-0.45906004816717294	0.0	1.0126856977199468	-0.6229675580028665	0.0
104	3.4797484276729564	0.9697319994791119	-0.7280900172151042	0.0	0.9464160092094208	-0.7472870321104573	0.0	0.9596907972386386	-1.0632875419439436	0.0	0.6144374099725284	-1.0131592327136645	0.0	0.5780625030199467	-1.0279619102540138	0.0	0.5727187500119867	-1.0405371093791398	0.0	0.5727187529019597	-0.9774267590890264	0.0	1.000906661642261	-0.7489744502409933	0.0	0.9969011580071685	-1.0591884138699907	0.0	1.0463598459469587	-1.0960255357753352	0.0	0.6878120117183264	-1.0321572265614838	0.0	0.5439375000061246	-1.009991210938018	0.0	0.6144374315519604	-0.9972510332403066	0.0	1.045636336298805	-0.2373288325213702	0.0	1.1618610802589973	-0.06319641474591073	0.0	1.1462113716909335	-0.17036169558074526	0.0	0.9895629801831648	-0.2515455281089209	0.0	0.8084187133797194	-0.36095447079413207	0.0	0.9336880581312118	-0.589392540467438	0.0	1.0610501586980097	-0.30488962902469424	0.0	1.0383214129072071	-0.4662502176993674	0.0	1.0136799147249915	-0.6278139288873632	0.0
105	3.5132075471698117	0.9681863557781543	-0.7291019019708289	0.0	0.9451713551603809	-0.7476885501276778	0.0	0.9545954112670789	-1.063963436333927	0.0	0.6144373821753163	-1.0131592536141423	0.0	0.5780625047867327	-1.0279619094311228	0.0	0.5727187500263896	-1.0405371093849445	0.0	0.5727187549043445	-0.9774267603297674	0.0	0.9998356068148033	-0.7502140335806975	0.0	0.993257471413038	-1.0600082328010596	0.0	1.0267893771495928	-1.0946545411553892	0.0	0.687812011718127	-1.0321572265610646	0.0	0.5439375000040994	-1.0099912109376128	0.0	0.6144373980340755	-0.9972510596827718	0.0	1.052486132281266	-0.23897336685269957	0.0	1.1724893383558193	-0.06617924969476677	0.0	1.1547159124468913	-0.17303406867811771	0.0	0.9957886977025839	-0.2514574179294374	0.0	0.812636116626166	-0.35823862217079594	0.0	0.933358670632749	-0.5911000408634696	0.0	1.0673029785419534	-0.3089270006440737	0.0	1.0405357490282432	-0.4727399665848813	0.0	1.0152541383826539	-0.6330771246899217	0.0
106	3.5466666666666673	0.966912789647488	-0.7304399141931089	0.0	0.943794650284436	-0.7476796621803413	0.0	0.9485875916145607	-1.0645392832926324	0.0	0.6144373918515705	-1.0131592559239933	0.0	0.5780625059379507	-1.0279619104649176	0.0	0.572718750044031	-1.040537109392506	0.0	0.5727187565494186	-0.9774267616900554	0.0	0.9991681469942741	-0.7510046389948483	0.0	0.9908920749963216	-1.060798004749835	0.0	0.9951906007692786	-1.0921156799898368	0.0	0.6878120117180511	-1.0321572265609873	0.0	0.5439374999965136	-1.0099912109365576	0.0	0.6144373834863424	-0.9972510694086606	0.0	1.0594083696036	-0.2410982649437065	0.0	1.183686412547021	-0.06959839251522343	0.0	1.1634585139504703	-0.17591208338215789	0.0	1.0020042946472536	-0.25161495509974063	0.0	0.8166217492294827	-0.35588578022548617	0.0	0.9330567297798189	-0.5925762977564594	0.0	1.074076799628939	-0.3134173638909224	0.0	1.041466759745694	-0.4781214088290634	0.0	1.017536128624435	-0.6382470281090057	0.0
